<?xml version="1.0" standalone="no"?>
<!DOCTYPE svg PUBLIC "-//W3C//DTD SVG 20010904//EN"
 "http://www.w3.org/TR/2001/REC-SVG-20010904/DTD/svg10.dtd">
<svg version="1.0" xmlns="http://www.w3.org/2000/svg"
 width="300.000000pt" height="300.000000pt" viewBox="0 0 300.000000 300.000000"
 preserveAspectRatio="xMidYMid meet">
<metadata>
Created by potrace 1.10, written by Peter Selinger 2001-2011
</metadata>
<g transform="translate(0.000000,300.000000) scale(0.100000,-0.100000)"
fill="#000000" stroke="none">
<path d="M1614 2570 c-249 -36 -480 -228 -557 -462 -5 -14 -10 -15 -44 -2 -98
35 -226 5 -312 -72 -51 -46 -101 -133 -101 -176 0 -22 -6 -24 -80 -34 -376
-51 -537 -496 -278 -770 106 -113 195 -144 404 -144 l144 0 0 30 0 30 -134 0
c-105 0 -148 4 -198 20 -108 33 -192 106 -242 210 -29 60 -31 73 -31 170 0 96
3 110 29 165 38 78 120 159 193 192 44 20 79 28 143 31 47 2 91 9 98 14 6 6
12 24 12 41 0 59 24 111 75 164 82 84 195 104 298 51 43 -22 61 -15 72 29 13
52 63 150 108 209 83 109 213 193 357 230 90 23 260 15 350 -15 225 -78 399
-285 427 -511 9 -71 11 -73 102 -90 125 -23 232 -95 302 -202 52 -81 73 -165
67 -275 -3 -77 -9 -100 -41 -167 -75 -159 -241 -266 -412 -266 -29 0 -32 -3
-32 -30 0 -29 1 -30 52 -30 204 0 404 151 475 360 31 90 32 219 2 316 -55 178
-209 318 -389 355 -59 12 -63 15 -63 40 0 16 -11 63 -25 106 -103 325 -434
532 -771 483z"/>
<path d="M1536 1725 c-8 -8 -24 -26 -35 -41 l-20 -25 -38 25 c-63 43 -95 34
-118 -34 l-16 -49 -47 15 c-60 18 -58 18 -82 -6 -15 -15 -20 -33 -20 -70 l0
-50 -54 0 c-78 0 -89 -22 -60 -127 5 -17 1 -22 -25 -28 -37 -8 -81 -41 -81
-61 0 -8 11 -32 25 -52 14 -20 25 -41 25 -47 0 -5 -16 -21 -35 -34 -57 -39
-56 -78 5 -121 37 -26 37 -30 4 -80 -35 -52 -26 -76 38 -103 42 -17 49 -24 44
-41 -20 -70 -18 -93 5 -110 13 -9 43 -16 66 -16 l43 0 0 -43 c0 -23 7 -53 16
-66 17 -23 40 -25 110 -5 17 5 24 -2 41 -44 27 -64 51 -73 103 -38 50 33 54
33 80 -4 44 -62 82 -62 125 0 l27 39 45 -30 c61 -42 87 -35 110 32 16 46 20
50 43 45 108 -25 120 -19 120 60 l0 54 50 0 c37 0 55 5 70 20 24 24 24 22 6
82 l-15 47 37 12 c77 24 90 59 46 122 l-25 38 25 20 c71 56 74 82 16 131 l-40
33 26 38 c27 41 29 84 4 99 -8 4 -31 15 -51 23 l-37 14 15 51 c14 47 13 53 -2
70 -12 13 -34 20 -69 22 l-51 3 -3 53 c-2 41 -8 55 -26 67 -20 13 -29 13 -70
1 l-46 -14 -15 36 c-8 21 -19 44 -23 52 -15 25 -58 23 -99 -4 l-38 -26 -33 40
c-36 43 -69 52 -96 25z m127 -115 c13 0 39 11 59 25 l38 25 15 -36 c8 -20 15
-40 15 -45 0 -21 42 -31 85 -20 24 6 46 11 49 11 3 0 6 -20 6 -45 0 -32 6 -51
20 -65 14 -14 33 -20 65 -20 50 0 49 1 34 -53 -17 -63 -6 -79 84 -110 17 -6
16 -10 -8 -44 -40 -60 -34 -83 39 -136 17 -13 16 -15 -23 -46 -49 -39 -53 -69
-16 -117 14 -18 25 -34 25 -37 0 -2 -18 -10 -40 -17 -22 -7 -47 -22 -57 -32
-15 -16 -15 -25 -5 -64 17 -64 17 -64 -37 -64 -60 0 -81 -22 -81 -87 0 -24 -1
-43 -2 -43 -2 0 -24 7 -49 14 -58 18 -83 5 -100 -54 -7 -22 -16 -40 -21 -40
-5 0 -26 11 -46 25 -50 34 -66 32 -103 -15 -18 -22 -35 -40 -38 -40 -3 0 -17
16 -30 35 -32 48 -60 53 -108 21 -20 -14 -40 -26 -44 -26 -3 0 -14 20 -24 45
-19 52 -43 69 -77 56 -13 -4 -35 -11 -50 -15 -28 -6 -28 -6 -28 47 0 29 -5 58
-12 65 -7 7 -36 12 -65 12 -53 0 -53 0 -47 28 4 15 10 36 14 47 13 34 -6 62
-54 80 -25 10 -46 19 -46 22 0 2 11 21 25 43 37 58 34 68 -32 120 l-28 21 43
36 c49 40 51 57 17 107 -14 20 -25 40 -25 45 0 4 18 13 40 20 59 17 72 42 54
100 -7 25 -14 47 -14 49 0 1 19 2 43 2 65 0 87 21 87 81 0 54 0 54 64 37 39
-10 48 -10 64 5 10 10 25 35 32 57 7 22 15 40 17 40 3 0 19 -11 37 -25 48 -37
78 -33 116 15 l32 41 35 -41 c21 -24 43 -40 56 -40z"/>
<path d="M1212 1063 c2 -90 7 -128 16 -131 9 -3 12 13 12 57 l0 61 50 0 c38 0
50 4 50 15 0 11 -12 15 -50 15 l-50 0 0 41 0 40 55 -2 c30 -1 58 0 61 4 16 16
-14 27 -77 27 l-70 0 3 -127z"/>
<path d="M1390 1059 c0 -100 3 -130 13 -127 7 3 13 27 15 61 3 58 10 65 46 51
9 -3 30 -30 47 -60 30 -52 39 -61 52 -48 8 8 -19 62 -45 91 -20 21 -20 21 0
27 28 9 45 56 33 89 -14 35 -40 47 -105 47 l-56 0 0 -131z m124 85 c33 -33 11
-63 -54 -71 l-40 -6 0 47 0 46 39 0 c23 0 46 -7 55 -16z"/>
<path d="M1600 1060 l0 -131 78 3 c92 4 103 22 15 26 l-63 3 0 44 0 45 55 0
c42 0 55 3 55 15 0 12 -13 15 -55 15 l-55 0 0 41 0 41 58 -4 c45 -2 57 0 57
12 0 12 -16 16 -72 18 l-73 3 0 -131z"/>
<path d="M1790 1060 l0 -131 77 3 c50 2 78 7 81 16 3 9 -14 12 -62 12 l-66 0
0 45 0 44 55 3 c71 4 71 22 0 26 l-55 3 0 40 0 41 57 -4 c49 -2 58 0 61 15 3
15 -6 17 -72 17 l-76 0 0 -130z"/>
</g>
</svg>
