<?xml version="1.0" standalone="no"?>
<!DOCTYPE svg PUBLIC "-//W3C//DTD SVG 20010904//EN"
 "http://www.w3.org/TR/2001/REC-SVG-20010904/DTD/svg10.dtd">
<svg version="1.0" xmlns="http://www.w3.org/2000/svg"
 width="300.000000pt" height="300.000000pt" viewBox="0 0 300.000000 300.000000"
 preserveAspectRatio="xMidYMid meet">
<metadata>
Created by potrace 1.10, written by Peter Selinger 2001-2011
</metadata>
<g transform="translate(0.000000,300.000000) scale(0.100000,-0.100000)"
fill="#000000" stroke="none">
<path d="M1430 2907 c-3 -2 -36 -7 -75 -10 -206 -17 -451 -104 -634 -225 -335
-224 -563 -580 -618 -962 -10 -70 -10 -339 -1 -407 91 -626 624 -1139 1248
-1201 335 -33 654 47 937 234 185 123 396 369 488 567 40 87 90 232 104 307 6
30 14 66 17 80 16 70 16 313 -1 422 -68 450 -360 847 -769 1047 -90 44 -220
93 -280 105 -31 7 -127 25 -161 30 -47 9 -250 19 -255 13z m215 -38 c117 -13
208 -31 224 -43 7 -6 25 -12 39 -14 38 -5 196 -71 274 -115 238 -133 461 -374
571 -617 47 -103 55 -125 80 -220 40 -151 50 -252 45 -411 -9 -246 -85 -486
-213 -678 -28 -41 -55 -84 -62 -96 -17 -30 -213 -235 -225 -235 -5 0 -30 -17
-56 -38 -56 -46 -144 -102 -160 -102 -7 0 -12 -4 -12 -9 0 -19 -264 -120 -357
-137 -21 -4 -47 -8 -58 -10 -147 -28 -332 -28 -475 1 -114 22 -116 23 -136 33
-11 6 -39 15 -63 22 -46 12 -128 46 -196 82 -345 179 -602 505 -707 896 -30
113 -31 125 -32 322 -1 192 1 212 26 309 46 174 107 315 194 445 21 32 44 68
51 80 26 47 206 217 299 284 213 151 429 229 684 249 36 2 67 7 70 9 6 7 105
4 195 -7z"/>
<path d="M1376 2699 c-282 -31 -539 -153 -735 -350 -70 -71 -161 -189 -161
-210 0 -6 -4 -8 -8 -5 -4 3 -30 -41 -56 -96 -89 -188 -125 -342 -124 -538 1
-196 38 -356 122 -530 114 -232 326 -442 573 -563 39 -19 74 -33 76 -30 3 2
19 -3 36 -11 32 -17 164 -50 240 -61 88 -13 304 -7 386 10 201 42 384 126 545
253 67 53 210 215 243 277 9 17 16 26 17 20 0 -15 71 131 103 212 49 126 67
217 73 378 9 219 -18 360 -107 552 -82 178 -251 379 -412 488 -70 48 -221 127
-247 130 -8 1 -27 7 -42 13 -41 17 -127 40 -178 48 -25 3 -58 8 -75 11 -62 10
-193 11 -269 2z m359 -44 c404 -84 738 -368 876 -746 90 -245 93 -545 7 -787
-68 -194 -163 -339 -315 -482 -261 -246 -620 -359 -973 -306 -436 66 -801 369
-948 786 -49 140 -65 258 -59 428 5 163 29 278 86 412 163 382 520 651 941
710 91 12 290 5 385 -15z"/>
<path d="M1310 2554 c-163 -29 -320 -99 -459 -202 l-74 -54 338 -338 338 -338
40 21 c85 44 205 31 270 -31 l27 -26 0 147 c0 145 0 147 25 163 23 15 27 15
50 0 l25 -16 0 -348 0 -347 204 -204 204 -204 61 82 c270 364 288 847 47 1221
-99 153 -287 316 -448 389 -202 92 -440 123 -648 85z m328 -23 c17 -5 32 -6
32 -1 0 5 19 3 43 -5 23 -7 69 -21 102 -30 67 -20 186 -71 195 -84 3 -4 21
-16 40 -26 142 -73 328 -281 409 -458 29 -65 67 -200 81 -292 13 -85 7 -254
-11 -334 -16 -70 -50 -175 -60 -186 -5 -5 -9 -18 -9 -28 0 -24 -89 -173 -134
-223 l-35 -39 -28 25 c-15 14 -32 31 -37 38 -4 8 -39 44 -78 80 -38 37 -76 78
-84 90 -16 24 -15 24 16 17 47 -10 131 -7 185 6 56 14 120 70 131 114 4 17 11
33 17 36 13 9 -11 109 -32 134 -19 23 -112 71 -156 80 -16 4 -51 13 -77 22
-40 12 -48 19 -48 38 0 15 9 29 22 36 26 14 161 7 181 -9 10 -8 21 -6 44 8 66
40 51 108 -31 138 -59 22 -217 23 -258 1 -68 -36 -128 -117 -128 -175 0 -47
32 -105 78 -140 25 -18 52 -34 61 -34 33 0 166 -49 176 -64 26 -41 -68 -61
-160 -34 -77 23 -97 23 -128 -2 -14 -11 -28 -20 -31 -20 -4 0 -6 129 -6 288 0
158 -3 311 -8 340 -15 89 -63 116 -119 68 -27 -23 -28 -29 -31 -123 -4 -123
-5 -127 -34 -112 -47 25 -178 27 -235 4 l-37 -16 -315 315 -315 315 20 22 c60
67 248 161 396 199 90 22 135 28 237 29 69 1 141 -3 159 -8z m660 -876 c59
-18 79 -43 61 -76 -10 -19 -16 -21 -62 -13 -29 5 -82 9 -119 9 -57 -1 -71 -4
-93 -25 -32 -30 -32 -65 -1 -85 13 -9 62 -26 110 -39 97 -27 140 -49 168 -87
51 -68 21 -172 -62 -216 -76 -40 -257 -26 -321 25 -17 14 -20 25 -16 44 9 36
28 40 93 18 97 -34 210 -21 228 25 18 47 -6 66 -125 99 -131 36 -172 63 -189
128 -21 78 26 165 105 193 53 19 159 19 223 0z"/>
<path d="M654 2161 c-130 -166 -202 -346 -224 -561 -45 -427 201 -865 596
-1058 374 -184 808 -139 1137 117 l58 45 -228 228 c-202 202 -229 226 -243
213 -56 -51 -176 -60 -258 -19 -59 29 -96 69 -126 134 -26 58 -27 186 -1 244
l17 39 -340 340 -340 340 -48 -62z m191 -121 c71 -71 127 -131 125 -134 -3 -2
-22 -11 -42 -19 -20 -9 -43 -28 -51 -44 -20 -37 -153 -352 -162 -380 -3 -13
-11 -23 -16 -23 -5 0 -9 -7 -9 -16 0 -8 -21 -62 -46 -120 -59 -136 -64 -167
-34 -199 30 -32 79 -33 107 -2 27 29 63 101 63 125 0 39 26 47 164 47 191 1
179 6 218 -82 18 -41 43 -84 57 -94 33 -26 73 -24 100 5 19 20 22 31 17 61 -6
28 -98 256 -171 420 -70 158 -83 195 -68 195 3 0 60 -53 125 -117 116 -115
119 -119 113 -153 -4 -19 -9 -71 -12 -115 -5 -99 17 -170 75 -232 62 -66 113
-88 207 -87 55 0 90 5 112 17 18 9 38 17 45 17 7 0 46 -33 85 -73 40 -39 129
-128 198 -196 69 -68 125 -128 125 -132 0 -11 -106 -89 -120 -89 -5 0 -10 -4
-10 -8 0 -25 -219 -111 -348 -137 -83 -17 -287 -17 -387 0 -85 14 -304 96
-313 118 -2 4 -23 17 -45 28 -58 29 -120 79 -200 161 -178 183 -284 432 -291
686 -4 156 16 270 78 439 32 85 149 263 174 263 4 0 66 -58 137 -130z m168
-188 c9 -10 82 -172 162 -361 140 -329 145 -344 130 -367 -17 -27 -56 -32 -74
-10 -7 8 -27 52 -46 98 l-34 83 -186 0 -187 0 -34 -85 c-20 -47 -43 -91 -52
-97 -25 -20 -50 -15 -67 11 -15 23 -11 37 129 367 80 188 153 350 162 360 22
24 76 25 97 1z"/>
<path d="M895 1573 c-39 -92 -71 -170 -73 -175 -2 -4 62 -8 143 -8 114 0 146
3 142 13 -3 6 -36 84 -73 172 -36 88 -67 161 -68 162 -1 1 -33 -73 -71 -164z
m115 -15 c18 -46 37 -87 42 -92 4 -6 8 -18 8 -28 0 -16 -10 -18 -89 -18 -50 0
-92 4 -96 9 -5 8 49 151 77 204 14 26 23 15 58 -75z"/>
<path d="M1563 1569 c-18 -5 -33 -13 -33 -17 0 -4 59 -66 130 -137 l130 -130
0 106 c0 97 -2 107 -22 126 -54 49 -142 72 -205 52z m135 -39 c44 -20 58 -43
66 -104 9 -70 -9 -66 -95 20 -47 47 -79 86 -75 93 11 17 56 13 104 -9z"/>
<path d="M1446 1419 c-10 -91 14 -156 78 -203 21 -17 42 -21 96 -21 38 0 74 5
79 10 7 7 -30 51 -118 139 l-128 128 -7 -53z m122 -102 c39 -40 72 -78 72 -85
0 -17 -55 -15 -90 3 -36 19 -65 60 -74 106 -6 33 -1 49 13 49 4 0 39 -33 79
-73z"/>
</g>
</svg>
