<?xml version="1.0" standalone="no"?>
<!DOCTYPE svg PUBLIC "-//W3C//DTD SVG 20010904//EN"
 "http://www.w3.org/TR/2001/REC-SVG-20010904/DTD/svg10.dtd">
<svg version="1.0" xmlns="http://www.w3.org/2000/svg"
 width="300.000000pt" height="300.000000pt" viewBox="0 0 300.000000 300.000000"
 preserveAspectRatio="xMidYMid meet">
<metadata>
Created by potrace 1.10, written by Peter Selinger 2001-2011
</metadata>
<g transform="translate(0.000000,300.000000) scale(0.100000,-0.100000)"
fill="#000000" stroke="none">
<path d="M1469 2849 c-21 -8 -88 -80 -145 -157 -9 -12 -24 -5 -95 42 -90 60
-134 70 -176 41 -12 -8 -35 -53 -54 -106 -19 -50 -39 -93 -46 -96 -6 -3 -46 5
-87 16 -166 46 -197 24 -206 -144 l-5 -100 -100 -6 c-55 -3 -110 -11 -122 -17
-49 -27 -54 -72 -22 -188 11 -41 19 -81 16 -87 -3 -7 -46 -27 -96 -46 -53 -19
-98 -42 -106 -54 -29 -42 -19 -86 41 -176 31 -46 52 -86 47 -91 -4 -4 -40 -33
-80 -64 -115 -92 -116 -137 -6 -227 37 -30 73 -59 81 -65 12 -9 5 -24 -42 -95
-60 -90 -70 -134 -41 -176 8 -12 53 -35 106 -54 50 -19 93 -39 96 -46 3 -6 -5
-46 -16 -87 -32 -116 -27 -161 22 -188 12 -6 67 -14 122 -17 l100 -6 6 -100
c9 -170 33 -187 205 -144 49 13 89 18 93 13 5 -5 23 -49 41 -97 19 -49 42 -94
54 -102 41 -29 86 -19 175 41 71 47 86 54 95 42 6 -8 35 -44 65 -81 88 -109
134 -109 222 0 30 37 59 73 65 81 9 12 24 5 95 -42 90 -60 134 -70 176 -41 12
8 35 53 54 106 19 50 39 93 46 96 6 3 46 -5 87 -16 166 -46 197 -24 206 144
l5 100 100 6 c55 3 110 11 122 17 49 27 54 72 22 188 -11 41 -19 81 -16 87 3
7 46 27 96 46 53 19 98 42 106 54 29 42 19 86 -41 176 -47 71 -54 86 -42 95
80 60 149 124 157 147 7 19 7 39 0 58 -8 23 -77 87 -157 147 -12 9 -5 24 42
95 60 90 70 134 41 176 -8 12 -53 35 -106 54 -50 19 -93 39 -96 46 -3 6 5 46
16 87 46 166 24 197 -144 206 l-100 5 -5 100 c-9 168 -40 190 -206 144 -41
-11 -81 -19 -87 -16 -7 3 -27 46 -46 96 -19 53 -42 98 -54 106 -42 29 -86 19
-176 -41 -71 -47 -86 -54 -95 -42 -62 83 -124 149 -149 157 -16 6 -30 11 -31
10 -1 0 -13 -5 -27 -10z m99 -150 c94 -118 115 -121 239 -38 41 28 79 49 85
47 5 -2 25 -43 43 -91 18 -48 38 -94 45 -102 26 -31 63 -34 160 -8 51 13 99
22 107 19 9 -4 13 -29 13 -91 0 -151 24 -175 177 -175 62 0 85 -4 89 -14 3 -8
-6 -55 -20 -106 -23 -83 -24 -96 -11 -126 15 -36 37 -50 139 -85 37 -13 70
-29 73 -36 2 -6 -19 -47 -48 -90 -41 -60 -53 -87 -53 -116 -1 -41 0 -42 120
-144 l49 -43 -49 -42 c-120 -103 -121 -104 -120 -145 0 -29 12 -56 53 -116 29
-43 50 -84 48 -90 -3 -7 -36 -23 -73 -36 -102 -35 -124 -49 -139 -85 -13 -30
-12 -43 11 -126 14 -51 23 -98 20 -106 -4 -10 -27 -14 -91 -14 -151 0 -175
-24 -175 -177 0 -62 -4 -85 -14 -89 -8 -3 -55 6 -106 20 -83 23 -96 24 -126
11 -36 -15 -50 -37 -85 -139 -13 -37 -29 -70 -36 -73 -6 -2 -45 18 -86 46
-124 83 -145 80 -239 -38 -35 -44 -65 -80 -68 -80 -3 0 -33 36 -68 80 -94 118
-115 121 -239 38 -41 -28 -80 -48 -86 -46 -7 3 -23 36 -36 73 -35 102 -49 124
-85 139 -30 13 -43 12 -126 -11 -51 -14 -98 -23 -106 -20 -10 4 -14 27 -14 89
0 153 -24 177 -175 177 -62 0 -87 4 -91 13 -3 8 6 56 19 107 26 97 23 134 -8
160 -8 7 -54 27 -102 45 -48 18 -89 38 -91 43 -2 6 20 46 49 89 41 60 53 87
53 116 1 41 0 42 -120 145 l-49 42 49 43 c120 102 121 103 120 144 0 29 -12
56 -53 116 -29 43 -51 83 -49 89 2 5 43 25 91 43 48 18 94 38 102 45 31 26 34
63 8 160 -13 51 -22 99 -19 107 4 9 29 13 91 13 151 0 175 24 175 177 0 60 4
85 13 89 8 3 56 -6 107 -19 71 -19 100 -22 121 -15 38 13 43 21 83 123 19 49
39 91 45 93 5 2 43 -19 84 -47 124 -83 145 -80 239 38 35 44 65 80 68 80 3 0
33 -36 68 -80z"/>
<path d="M770 1471 c0 -203 2 -240 15 -245 8 -3 22 -3 31 1 13 5 15 30 12 189
-2 101 0 183 3 182 4 -2 61 -85 128 -185 119 -180 121 -183 156 -183 l35 0 -2
238 -3 237 -27 3 -28 3 -2 -190 -3 -191 -125 190 c-120 181 -126 190 -157 190
l-33 0 0 -239z"/>
<path d="M1260 1470 l0 -240 180 0 180 0 0 25 0 24 -147 3 -148 3 0 80 0 80
133 3 133 3 -3 27 -3 27 -130 0 -130 0 -3 72 -3 72 143 3 143 3 0 25 0 25
-172 3 -173 2 0 -240z"/>
<path d="M1675 1700 c-5 -8 93 -398 115 -455 5 -14 16 -20 34 -20 14 1 28 4
31 7 4 4 76 255 113 392 6 24 16 -3 61 -170 30 -109 58 -206 62 -215 5 -11 17
-14 37 -11 28 4 29 6 91 233 34 126 59 233 56 239 -11 18 -45 10 -55 -12 -13
-29 -90 -359 -90 -383 0 -34 -13 -5 -21 47 -5 29 -27 122 -51 206 l-42 153
-40 -3 -39 -3 -48 -170 c-26 -93 -50 -188 -54 -210 l-8 -40 -8 30 c-4 17 -22
95 -39 175 -49 225 -47 220 -75 220 -13 0 -27 -4 -30 -10z"/>
</g>
</svg>
